<svg xmlns="http://www.w3.org/2000/svg" width="16" height="16" viewBox="0 0 16 16">
                            <path d="M2.01 11.715c-2.68-2.68-2.68-7.025 0-9.705 2.68-2.68 7.025-2.68 9.705 0 2.35 2.35 2.64 5.978.87 8.643.034.028.068.06.1.09l2.912 2.913c.536.536.54 1.4 0 1.94-.536.537-1.402.54-1.94 0l-2.913-2.91c-.032-.033-.063-.067-.09-.102-2.666 1.77-6.295 1.48-8.644-.87zm1.94-1.94c1.61 1.607 4.216 1.607 5.824 0 1.608-1.61 1.608-4.216 0-5.824-1.608-1.607-4.215-1.607-5.823 0-1.607 1.61-1.607 4.216 0 5.824z" fill="#574751" fill-rule="evenodd"/>
                        </svg>